# xmcd
#
# Track frame offsets:
#	150
#	19240
#	40894
#	58917
#	77813
#	97567
#	117497
#	136655
#	156667
#	176269
#
# Disc length: 2581 seconds
#
# Revision: 2
# Processed by: cddbd v1.5.2PL0 Copyright (c) Steve Scherf et al.
# Submitted via: EasyCDDAExtractor 15.3.0.1
#
DISCID=7b0a130a
DTITLE=Yolandita Monge - Demasiado Fuerte
DYEAR=2007
DGENRE=Latin
TTITLE0=Y Todavia
TTITLE1=Demasiado Fuerte
TTITLE2=La Vida Sin Tu Amor
TTITLE3=Cambio De Piel
TTITLE4=Segunda Parte
TTITLE5=Amnesia
TTITLE6=Te Amo Tanto
TTITLE7=Y Que No Digan
TTITLE8=Como Una Flor
TTITLE9=Sentimiento Borinqueño
EXTD=
EXTT0=
EXTT1=
EXTT2=
EXTT3=
EXTT4=
EXTT5=
EXTT6=
EXTT7=
EXTT8=
EXTT9=
PLAYORDER=
